<?xml version="1.0" encoding="utf-8"?>
<!-- Generator: Adobe Illustrator 27.4.0, SVG Export Plug-In . SVG Version: 6.00 Build 0)  -->
<svg version="1.1" id="Слой_1" xmlns="http://www.w3.org/2000/svg" xmlns:xlink="http://www.w3.org/1999/xlink" x="0px" y="0px"
	 viewBox="0 0 250 71.29" style="enable-background:new 0 0 250 71.29;" xml:space="preserve">
<path d="M25.64,17.02"/>
<path d="M105.42,50.66L85.81-0.01c-2.69,0.01-5.38,0.02-8.07,0.03c-7.57,16.84-15.15,33.68-22.72,50.53
	c3.52-0.01,7.05-0.02,10.57-0.03c5.3-11.34,10.59-22.69,15.89-34.03c1.94,4.84,3.89,9.67,5.83,14.51c-2.28,0-4.55,0.01-6.83,0.01
	c-1.4,3.03-2.8,6.05-4.2,9.08c4.89-0.01,9.78-0.02,14.67-0.04c1.43,3.56,2.86,7.11,4.29,10.67C98.62,50.7,102.02,50.68,105.42,50.66
	z"/>
<polygon points="138.2,-0.01 138.2,17.13 119.27,17.13 119.27,-0.01 109.32,-0.01 109.32,17.13 109.32,27.05 109.32,50.72 
	119.27,50.72 119.27,27.05 138.2,27.05 138.2,50.72 148.15,50.72 148.15,27.05 148.15,17.13 148.15,-0.01 "/>
<path d="M201.15,3.1c0-1.04,0.01-2.07,0.01-3.11c-14.98,0.02-29.95,0.04-44.93,0.06c0,2.87,0,5.75,0,8.62c9.37,0,18.75,0,28.12,0
	c-10.77,12.78-21.53,25.55-32.3,38.33c0,1.24,0,2.48,0,3.72h44.76v-9.39h-28.89C179,28.59,190.07,15.85,201.15,3.1z"/>
<path d="M240.77,5.55c-1.5-1.21-6.85-5.39-14.87-5.55c-7.82-0.16-13.24,3.61-15.53,5.25c-1.54,1.11-10.94,8.09-11.59,20.19
	c-0.11,2.14-0.37,8.81,4.19,15.17c7.28,10.16,20.1,10.11,20.99,10.1c10.56-0.21,17.13-6.91,18.75-8.62c1.59-1.67,7-7.55,7.28-16.65
	C250.03,24.46,250.18,13.12,240.77,5.55z M235.61,35.13c-4.83,5.39-11.61,5.39-12.62,5.37c-1.33-0.02-7.19-0.12-11.29-4.66
	c-3.32-3.68-3.44-8.01-3.46-9.45c-0.01-0.86,0.01-4.95,2.73-8.91c2.99-4.36,9.84-9.47,17.66-7.26c7.11,2.01,10.92,8.91,10.92,14.88
	C239.56,30.5,236.45,34.2,235.61,35.13z"/>
<path d="M34.39,30.35h7.31v-0.02c0.11,0,0.21,0.02,0.32,0.02c8.38,0,15.18-6.79,15.18-15.18c0-8.38-6.79-15.18-15.18-15.18
	c-0.11,0-0.21,0.01-0.32,0.02v-0.02H20.99H10.96H0c2.45,2.89,4.89,5.78,7.34,8.66c1.21,0.01,2.42,0.01,3.63,0.02
	c0,7.22,0,14.45,0,21.67v20.37h10.03V32.6v-2.25v-9.1V9.46h19.92v0.01c0.05,0,0.1-0.01,0.15-0.01c4,0,7.25,2.64,7.25,5.89
	s-3.25,5.89-7.25,5.89c-0.05,0-0.1-0.01-0.15-0.01v0.01H24.57v10.6C35.11,45,45.64,58.14,56.18,71.29c3.28,0,6.56-0.01,9.84-0.01
	C55.48,57.63,44.94,43.99,34.39,30.35z"/>
</svg>
